<?xml version="1.0"?>
<svg version="1.1" id="圖層_1" xmlns="http://www.w3.org/2000/svg" x="0" y="0" viewBox="0 0 100 100" xml:space="preserve"><circle cx="50" cy="50" r="40" fill="#333"/><circle cx="50" cy="50" r="40" fill="#333"/><path d="M68.795 41.738l-.451-.261a10.946 10.946 0 0 0 .788-6.89 10.954 10.954 0 0 0-4.77-6.967 10.926 10.926 0 0 0-8.299-1.554 10.944 10.944 0 0 0-6.726 4.437l-.453-.261a1.006 1.006 0 1 0-1.006 1.742l.451.261a10.928 10.928 0 0 0-.91 3.081 2.881 2.881 0 0 0-1.908 1.375l-1.375 2.381a2.904 2.904 0 0 0 1.062 3.963l1.258.726-11.471 21.765c-1.228 2.331-.58 5.086 1.474 6.271l2.552 1.473c2.054 1.186 4.763.369 6.167-1.86l13.115-20.816 1.257.726c1.385.8 3.163.324 3.963-1.062l1.375-2.381c.426-.739.48-1.585.237-2.339a11.012 11.012 0 0 0 2.212-2.33l.453.261a1.006 1.006 0 1 0 1.005-1.741zM56.477 28.034a8.954 8.954 0 0 1 6.785 1.271c3.741 2.439 5.063 7.199 3.331 11.162l-15.508-8.954a8.948 8.948 0 0 1 5.392-3.479zm7.406 15.933c-.021-.013-.037-.03-.058-.042l-14.351-8.286c-.021-.012-.043-.017-.064-.029.113-.81.336-1.601.667-2.357l15.51 8.955a8.999 8.999 0 0 1-1.704 1.759z" fill="#fff"/><metadata xmlns:d="https://loading.io/stock/"><d:name>microphone</d:name><d:tags>microphone,speaker,mike,amplifier,sing,play,music,karaoke,party</d:tags><d:license>by</d:license><d:slug>mdqdra</d:slug></metadata></svg>